<svg xmlns="http://www.w3.org/2000/svg" width="24" height="24" viewBox="0 0 24 24"><path d="M0 18.343L5.656 24 24 5.657 18.343 0 0 18.343zM21.17 5.657L5.658 21.17l-2.83-2.828 1.04-1.008 2.123 2.122.707-.707-2.122-2.123 1.414-1.414 1.413 1.414.708-.708-1.413-1.415L8.11 13.09l1.415 1.415.707-.707-1.414-1.414 1.414-1.414 2.122 2.122.707-.708-2.12-2.122 1.414-1.414 1.414 1.414.707-.707L13.06 8.14l1.415-1.413L15.89 8.14l.706-.706-1.414-1.414 1.414-1.415 2.12 2.122.708-.707-2.12-2.122 1.038-1.07 2.83 2.83z"/></svg>