<?xml version="1.0" encoding="utf-8"?>

<!-- License Agreement at http://iconmonstr.com/license/ -->

<!DOCTYPE svg PUBLIC "-//W3C//DTD SVG 1.1//EN" "http://www.w3.org/Graphics/SVG/1.1/DTD/svg11.dtd">
<svg version="1.1" xmlns="http://www.w3.org/2000/svg" xmlns:xlink="http://www.w3.org/1999/xlink" x="0px" y="0px"
	 width="512px" height="512px" viewBox="0 0 512 512" style="enable-background:new 0 0 512 512;" xml:space="preserve">
<path id="recycling-11" d="M336.268,404.381l21.291,27.275C328.02,450.768,292.915,462,255.095,462
	c-69.991,0-130.913-38.189-163.503-94.752l-29.069,16.848l18.709-70.376l70.394,18.692l-29.991,17.4
	c26.688,46.338,76.277,77.854,133.461,77.854C284.901,427.666,312.646,419.05,336.268,404.381z M100.712,275.287
	c-0.017-0.713-0.117-1.408-0.117-2.121c0-79.387,60.251-144.768,137.384-153.326L237.944,153l51.567-51.433L238.112,50
	l-0.067,35.197c-96.294,8.625-171.783,89.438-171.783,187.969c0,2.331,0.251,4.594,0.352,6.899L100.712,275.287z M419.62,365.303
	c15.373-27.258,24.308-58.607,24.308-92.137c0-78.574-48.013-145.899-116.277-174.34l-10.695,32.858
	c54.468,23.915,92.64,78.29,92.64,141.482c0,27.52-7.577,53.16-20.251,75.574l-30.243-16.562l20.486,69.906l69.891-20.452
	L419.62,365.303z"/>
</svg>
