<svg xmlns="http://www.w3.org/2000/svg" width="24" height="24" viewBox="0 0 24 24"><path d="M12 18.292v1.834c.644.13 1.177.303 1.496.528.273.192.274.498 0 .69-1.494 1.053-7.498 1.054-8.993 0-.272-.19-.27-.5 0-.69.32-.225.852-.4 1.497-.528v-1.833c-2.363.48-4 1.51-4 2.707 0 1.657 3.134 3 7 3s7-1.343 7-3c0-1.196-1.637-2.226-4-2.708zm6.715-14.76C15.775 3.532 15.71 1 12.295 1c-.82 0-1.602.178-2.295.42V0H8v21h2v-9.625c.742-.383 1.586-.664 2.308-.664 3.223 0 3.676 2.41 6.55 2.41 1.855 0 3.142-1.18 3.142-1.18V2.29s-1.412 1.25-3.28 1.25zM20 10.852c-1.28.59-2.076.16-3.076-.53-.986-.68-2.336-1.61-4.616-1.61-.766 0-1.558.194-2.308.478V3.564c1.307-.692 2.984-.872 4.54.347 1.525 1.2 3.12 1.97 5.46 1.49v5.45z"/></svg>