<?xml version="1.0" encoding="utf-8"?>

<!-- License Agreement at http://iconmonstr.com/license/ -->

<!DOCTYPE svg PUBLIC "-//W3C//DTD SVG 1.1//EN" "http://www.w3.org/Graphics/SVG/1.1/DTD/svg11.dtd">
<svg version="1.1" xmlns="http://www.w3.org/2000/svg" xmlns:xlink="http://www.w3.org/1999/xlink" x="0px" y="0px"
	 width="512px" height="512px" viewBox="0 0 512 512" style="enable-background:new 0 0 512 512;" xml:space="preserve">
<path id="paint-bucket-8" d="M273.137,67.5c-85.18,0-171.364,23.01-171.364,51.409c0,0.218,0,21.897,0,52.656
	c-8.066,7.757-16.86,17.63-23.805,29.378C70.83,213.025,67.5,225.375,67.5,237.006c0,16.425,6.811,31.412,20.441,42.188
	c12.751,10.091,30.256,15.697,50.773,15.697c33.586,0,75.231-15.062,117.286-50.028v19.705c0,14.191,11.514,25.705,25.704,25.705
	c14.191,0,25.704-11.514,25.704-25.705v-25.705c0-9.463,7.665-17.136,17.137-17.136c9.473,0,17.137,7.673,17.137,17.136v51.41
	c0,9.471,7.664,17.136,17.137,17.136c9.472,0,17.136-7.665,17.136-17.136v-68.546c0-9.464,7.665-17.137,17.137-17.137
	s17.136,7.673,17.136,17.137v8.568c0,0.008,0,0.025,0,0.025l0.018,149.851c-1.121,4.669-45,30.056-136.605,30.056
	c-92.493,0-136.506-25.37-137.593-29.938v-68.495c-10.292-0.101-23.931-2.042-34.273-5.823c0,41.937,0,74.318,0,74.318
	c0,34.155,68.545,64.211,171.866,64.211c101.78,0,170.861-29.889,170.861-64.211c0,0,0-260.627,0-261.38
	C444.5,90.51,358.316,67.5,273.137,67.5z M92.719,209.662c2.711-4.585,5.832-8.777,9.053-12.752c0,22.316,0,47.083,0,71.022
	c-1.096-0.719-2.234-1.405-3.205-2.176C81.925,252.603,79.741,231.626,92.719,209.662z M136.045,277.654V163.449
	c54.346,27.328,114.365,4.937,119.453,58.998C208.724,265.371,166.486,278.859,136.045,277.654z M274.475,149.434
	c-35.176,0-128.338-6.686-128.338-23.831c0-17.32,85.448-27.579,128.338-27.579c44.013,0,128.707,10.434,128.707,27.579
	C403.182,142.923,310.471,149.434,274.475,149.434z"/>
</svg>
