<?xml version="1.0" encoding="UTF-8" standalone="no"?>
<!-- License Agreement at http://iconmonstr.com/license/ -->

<svg
   xmlns:osb="http://www.openswatchbook.org/uri/2009/osb"
   xmlns:dc="http://purl.org/dc/elements/1.1/"
   xmlns:cc="http://creativecommons.org/ns#"
   xmlns:rdf="http://www.w3.org/1999/02/22-rdf-syntax-ns#"
   xmlns:svg="http://www.w3.org/2000/svg"
   xmlns="http://www.w3.org/2000/svg"
   xmlns:sodipodi="http://sodipodi.sourceforge.net/DTD/sodipodi-0.dtd"
   xmlns:inkscape="http://www.inkscape.org/namespaces/inkscape"
   version="1.1"
   x="0px"
   y="0px"
   width="512px"
   height="512px"
   viewBox="0 0 512 512"
   style="enable-background:new 0 0 512 512;"
   xml:space="preserve"
   id="svg2"
   inkscape:version="0.48.4 r9939"
   sodipodi:docname="ColorSensorRed.svg"
   inkscape:export-filename="/home/melanie/Obeo/dev/git/mindstorms/plugins/fr.obeo.dsl.mindstorms.design/icons/ColorSensorRed_48px.png"
   inkscape:export-xdpi="8.4375"
   inkscape:export-ydpi="8.4375"><metadata
     id="metadata9"><rdf:RDF><cc:Work
         rdf:about=""><dc:format>image/svg+xml</dc:format><dc:type
           rdf:resource="http://purl.org/dc/dcmitype/StillImage" /><dc:title></dc:title></cc:Work></rdf:RDF></metadata><defs
     id="defs7"><linearGradient
       id="linearGradient3777"
       osb:paint="solid"><stop
         style="stop-color:#fdbec8;stop-opacity:1;"
         offset="0"
         id="stop3779" /></linearGradient></defs><sodipodi:namedview
     pagecolor="#ffffff"
     bordercolor="#666666"
     borderopacity="1"
     objecttolerance="10"
     gridtolerance="10"
     guidetolerance="10"
     inkscape:pageopacity="0"
     inkscape:pageshadow="2"
     inkscape:window-width="788"
     inkscape:window-height="480"
     id="namedview5"
     showgrid="false"
     inkscape:zoom="0.4609375"
     inkscape:cx="256"
     inkscape:cy="256"
     inkscape:window-x="922"
     inkscape:window-y="132"
     inkscape:window-maximized="0"
     inkscape:current-layer="svg2" /><path
     id="paint-bucket-8"
     d="M273.137,67.5c-85.18,0-171.364,23.01-171.364,51.409c0,0.218,0,21.897,0,52.656  c-8.066,7.757-16.86,17.63-23.805,29.378C70.83,213.025,67.5,225.375,67.5,237.006c0,16.425,6.811,31.412,20.441,42.188  c12.751,10.091,30.256,15.697,50.773,15.697c33.586,0,75.231-15.062,117.286-50.028v19.705c0,14.191,11.514,25.705,25.704,25.705  c14.191,0,25.704-11.514,25.704-25.705v-25.705c0-9.463,7.665-17.136,17.137-17.136c9.473,0,17.137,7.673,17.137,17.136v51.41  c0,9.471,7.664,17.136,17.137,17.136c9.472,0,17.136-7.665,17.136-17.136v-68.546c0-9.464,7.665-17.137,17.137-17.137  s17.136,7.673,17.136,17.137v8.568c0,0.008,0,0.025,0,0.025l0.018,149.851c-1.121,4.669-45,30.056-136.605,30.056  c-92.493,0-136.506-25.37-137.593-29.938v-68.495c-10.292-0.101-23.931-2.042-34.273-5.823c0,41.937,0,74.318,0,74.318  c0,34.155,68.545,64.211,171.866,64.211c101.78,0,170.861-29.889,170.861-64.211c0,0,0-260.627,0-261.38  C444.5,90.51,358.316,67.5,273.137,67.5z M92.719,209.662c2.711-4.585,5.832-8.777,9.053-12.752c0,22.316,0,47.083,0,71.022  c-1.096-0.719-2.234-1.405-3.205-2.176C81.925,252.603,79.741,231.626,92.719,209.662z M136.045,277.654V163.449  c54.346,27.328,114.365,4.937,119.453,58.998C208.724,265.371,166.486,278.859,136.045,277.654z M274.475,149.434  c-35.176,0-128.338-6.686-128.338-23.831c0-17.32,85.448-27.579,128.338-27.579c44.013,0,128.707,10.434,128.707,27.579  C403.182,142.923,310.471,149.434,274.475,149.434z"
     style="opacity:1;stroke:none;stroke-opacity:0.84234231999999998;fill:#d93d45;fill-opacity:1"
     inkscape:export-filename="/home/melanie/Obeo/dev/git/mindstorms/plugins/fr.obeo.dsl.mindstorms.design/icons/ColorSensorRed_48px.png"
     inkscape:export-xdpi="11.458825"
     inkscape:export-ydpi="11.458825" /></svg>