<?xml version="1.0" encoding="utf-8"?>


<!-- The icon can be used freely in both personal and commercial projects with no attribution required, but always appreciated. 
You may NOT sub-license, resell, rent, redistribute or otherwise transfer the icon without express written permission from iconmonstr.com -->


<!DOCTYPE svg PUBLIC "-//W3C//DTD SVG 1.1//EN" "http://www.w3.org/Graphics/SVG/1.1/DTD/svg11.dtd">

<svg version="1.1" xmlns="http://www.w3.org/2000/svg" xmlns:xlink="http://www.w3.org/1999/xlink" x="0px" y="0px"

	 width="512px" height="512px" viewBox="0 0 512 512" enable-background="new 0 0 512 512" xml:space="preserve">

<path id="arrow-4-icon" d="M160.879,312.387V205.609h117.064v-39.627l93.178,93.016l-93.178,93.018v-39.629H160.879z M90,256

	c0,91.756,74.258,166,166,166c91.755,0,166-74.258,166-166c0-91.755-74.258-166-166-166C164.245,90,90,164.259,90,256z M462,256

	c0,113.771-92.229,206-206,206S50,369.771,50,256c0-113.771,92.229-206,206-206S462,142.229,462,256z"/>

</svg>

