<?xml version="1.0" encoding="utf-8"?>
<!-- Generator: Adobe Illustrator 19.1.0, SVG Export Plug-In . SVG Version: 6.00 Build 0)  -->
<svg version="1.1" id="Calque_1" xmlns="http://www.w3.org/2000/svg" xmlns:xlink="http://www.w3.org/1999/xlink" x="0px" y="0px"
	 viewBox="-87 88.4 24 24" style="enable-background:new -87 88.4 24 24;" xml:space="preserve">
<style type="text/css">
	.st0{fill:#FFFFFF;}
</style>
<polygon points="-75,89.4 -87,101.4 -84,101.4 -84,111.4 -66,111.4 -66,101.4 -63,101.4 "/>
<polygon points="-67,95.5 -70,92.5 -70,90.4 -67,90.4 "/>
<path class="st0" d="M-75,98.7c-2.1,0-3.9,1.7-3.9,3.9l0,0c0,1.5,0.8,2.8,2.1,3.4v1.2c0.3,0.4,0.9,0.5,0.9,0.5v-0.9h0.5v0.9h0.9
	v-0.9h0.5v0.9c0,0,0.6-0.1,0.9-0.5V106c1.2-0.7,2.1-1.9,2.1-3.4C-71.1,100.4-72.9,98.7-75,98.7L-75,98.7z M-76.8,104
	c-0.6,0-1.1-0.5-1.1-1.1c0-0.6,0.5-1.1,1.1-1.1c0.6,0,1.1,0.5,1.1,1.1C-75.7,103.5-76.2,104-76.8,104z M-75.9,104.9l0.9-1.2l0.9,1.2
	H-75.9z M-73.2,104c-0.6,0-1.1-0.5-1.1-1.1c0-0.6,0.5-1.1,1.1-1.1s1.1,0.5,1.1,1.1C-72,103.5-72.5,104-73.2,104z M-71.1,105.4
	l1.6,1.6l-1.2,1.2l-1.6-1.6C-71.8,106.2-71.4,105.8-71.1,105.4z M-79,99.9l-1.5-1.5l1.2-1.2l1.5,1.5C-78.2,99-78.6,99.4-79,99.9z
	 M-72.2,98.7l1.5-1.5l1.2,1.2l-1.5,1.5C-71.4,99.4-71.8,99-72.2,98.7z M-77.7,106.6l-1.6,1.6l-1.2-1.2l1.6-1.6
	C-78.6,105.8-78.2,106.2-77.7,106.6z"/>
</svg>
