<svg xmlns="http://www.w3.org/2000/svg" xmlns:xlink="http://www.w3.org/1999/xlink" version="1.1" x="0px" y="0px" viewBox="0 0 256 320" enable-background="new 0 0 256 256" xml:space="preserve"><path d="M101.095,47.28c12.342,0.001,17.047,13.686,17.047,13.686c0.843,3.918,3.652,5.958,6.4,5.958  c2.297,0,4.551-1.426,5.574-4.37c1.424-4.096,4.984-11.087,13.442-11.086c1.41,0,2.957,0.195,4.652,0.629  c13.419,3.44,9.479,14.423,7.94,22.738c-0.604,3.265,4.063,5.88,7.273,5.88c1.124,0,2.069-0.321,2.547-1.047  c1.698-2.583,3.972-5.368,7.784-5.368c1.666,0,3.627,0.532,5.962,1.846c8.509,4.786,5.117,19.137,3.378,23.508l-30.075,88.639  c-0.661,1.947-2.488,3.256-4.543,3.256c-0.002,0-0.004,0-0.006,0l-71.757-0.086c-5.705-2.414-47.979-55.685-46.067-66.993  c0.576-3.404,6.83-9.512,13.237-9.511c0.788,0,1.579,0.093,2.361,0.294c7.402,1.904,7.156,7.506,12.764,12.054  c1.29,1.047,2.643,1.522,3.864,1.522c2.853,0,4.981-2.599,3.88-6.589c-1.585-5.744-8.02-20.67-17.314-41.021  c-1.441-3.156-3.146-15.532,5.425-19.309c2.434-1.073,4.625-1.555,6.615-1.555c6.307,0,10.588,4.847,14.146,11.1  c0.938,1.749,2.457,2.487,3.994,2.487c2.671,0,5.396-2.231,5.22-5.269c-0.318-5.486-1.313-19.191,13.899-21.233  C99.552,47.331,100.337,47.28,101.095,47.28 M101.096,37.28C101.096,37.28,101.096,37.28,101.096,37.28  c-1.213,0-2.454,0.084-3.69,0.25C87.34,38.88,79.98,44.388,76.68,53.038c-0.343,0.9-0.63,1.799-0.869,2.691  c-3.583-2.997-8.301-5.374-14.334-5.374c-3.445,0-7.028,0.809-10.648,2.404c-5.065,2.232-8.822,6.248-10.864,11.615  c-3.073,8.074-1.459,16.982,0.375,20.999c3.827,8.38,6.812,15.065,9.136,20.398c-0.243-0.07-0.49-0.138-0.742-0.203  c-1.57-0.404-3.202-0.609-4.851-0.609c-5.144-0.001-10.492,2.015-15.06,5.675c-2.08,1.667-7.027,6.189-8.038,12.168  c-0.885,5.239,1.138,11.676,6.767,21.527c4.641,8.124,10.834,16.933,15.212,22.892c5.457,7.429,11.314,14.839,16.491,20.863  c8.536,9.932,11.38,11.665,13.561,12.588c1.229,0.52,2.55,0.789,3.885,0.791l71.757,0.086c6.361,0,11.992-4.036,14.03-10.042  l30-88.416c4.042-10.404,5.245-28.283-7.869-35.66c-3.692-2.077-7.347-3.13-10.864-3.13c-2.215,0-4.18,0.392-5.911,1.025  c0.134-2.333,0.028-4.756-0.521-7.19c-1.025-4.543-4.547-12.627-16.629-15.725c-2.438-0.625-4.839-0.942-7.135-0.942  c-6.485-0.001-12.24,2.474-16.644,7.155c-0.825,0.877-1.595,1.824-2.309,2.839C120.408,44.606,112.708,37.281,101.096,37.28  L101.096,37.28z"/><text x="0" y="271" fill="#000000" font-size="5px" font-weight="bold" font-family="'Helvetica Neue', Helvetica, Arial-Unicode, Arial, Sans-serif">Created by Guilherme Simoes</text><text x="0" y="276" fill="#000000" font-size="5px" font-weight="bold" font-family="'Helvetica Neue', Helvetica, Arial-Unicode, Arial, Sans-serif">from the Noun Project</text></svg>