<?xml version="1.0" encoding="utf-8"?>

<!-- License Agreement at http://iconmonstr.com/license/ -->

<!DOCTYPE svg PUBLIC "-//W3C//DTD SVG 1.1//EN" "http://www.w3.org/Graphics/SVG/1.1/DTD/svg11.dtd">
<svg version="1.1" xmlns="http://www.w3.org/2000/svg" xmlns:xlink="http://www.w3.org/1999/xlink" x="0px" y="0px"
	 width="512px" height="512px" viewBox="0 0 512 512" enable-background="new 0 0 512 512" xml:space="preserve">
<path id="bulleted-list-icon" d="M178.721,116H462v40H178.721V116z M178.721,236H462v40H178.721V236z M178.721,356H462v40H178.721
	V356z M90,96c-22.09,0-40,17.908-40,40c0,22.09,17.91,40,40,40c22.092,0,40-17.91,40-40C130,113.908,112.092,96,90,96z M90,216
	c-22.09,0-40,17.908-40,40c0,22.09,17.91,40,40,40c22.092,0,40-17.91,40-40C130,233.908,112.092,216,90,216z M90,336
	c-22.09,0-40,17.908-40,40c0,22.09,17.91,40,40,40c22.092,0,40-17.91,40-40C130,353.908,112.092,336,90,336z"/>
</svg>
