<svg xmlns="http://www.w3.org/2000/svg" xmlns:xlink="http://www.w3.org/1999/xlink" version="1.1" x="0px" y="0px" viewBox="0 0 256 320" enable-background="new 0 0 256 256" xml:space="preserve"><path d="M116.134,36.773c6.536,0,9.562,6.32,9.611,11.961l3.005,64.292c-0.108,4.018,2.897,6.193,5.753,6.193  c2.221,0,4.352-1.315,4.859-4.102c0.905-4.978,9.912-41.911,11.613-50.795c0.783-4.089,3.058-11.586,11.581-11.585  c0.512,0,1.046,0.027,1.604,0.083c7.724,0.781,8.553,9.981,7.724,15.064c-2.976,18.251-10.164,51.388-10.874,55.223  c-0.516,2.784,2.765,4.557,5.453,4.557c1.372,0,2.589-0.462,3.069-1.487c1.358-2.898,9.13-18.523,14.708-28.599  c2.68-4.842,5.915-7.531,9.829-7.531c1.145,0,2.349,0.23,3.613,0.705c5.358,2.009,5.97,10.372,4.23,14.744L167.25,208.104  c-0.659,1.95-2.488,3.262-4.545,3.262c-0.002,0-0.004,0-0.006,0l-67.81-0.081c-2.503-0.003-4.881-1.094-6.515-2.99l-55.28-64.119  c-2.445-2.893-2.084-7.222,0.81-9.668c0,0,3.469-2.903,8.682-2.902c1.118,0,2.317,0.134,3.579,0.458  c7.402,1.904,21.141,15.334,26.748,19.883c1.095,0.889,2.475,1.283,3.897,1.283c4.166,0,8.7-3.383,7.527-7.63  c-1.585-5.744-21.934-51.34-31.228-71.692c-1.441-3.156-3.84-14.088,4.794-17.719c1.504-0.633,2.873-0.906,4.119-0.906  c6.761,0,9.886,8.075,11.197,10.73c0,0,19.284,42.667,23.964,50.893c0.993,1.851,2.41,2.644,3.76,2.644  c2.141,0,4.112-1.997,3.942-4.933c-0.318-5.486-0.698-47.518-0.248-65.951c0.145-5.874,3.745-11.783,11.353-11.891  C116.037,36.774,116.086,36.773,116.134,36.773 M116.134,26.773C116.134,26.773,116.134,26.773,116.134,26.773l-0.286,0.002  c-11.986,0.171-20.905,9.273-21.209,21.644c-0.236,9.674-0.249,25.878-0.157,39.984c-4.69-10.091-9.541-20.735-12.151-26.509  c-0.047-0.104-0.096-0.207-0.147-0.31c-0.092-0.186-0.195-0.407-0.31-0.654c-1.816-3.87-7.343-15.646-19.852-15.647  c-2.641,0-5.331,0.568-7.996,1.688c-5.096,2.143-8.836,5.954-10.813,11.02c-3.044,7.797-0.93,16.285,0.799,20.071  c7.997,17.509,19.244,42.767,25.698,57.884c-7.826-6.687-14.882-11.979-21.056-13.567c-1.995-0.513-4.037-0.773-6.07-0.773  c-8.419,0-14.055,4.359-15.1,5.233c-3.478,2.939-5.58,7.012-5.956,11.502c-0.376,4.487,1.018,8.852,3.925,12.291  c0.021,0.025,0.042,0.05,0.064,0.075l55.28,64.119c3.532,4.099,8.663,6.454,14.077,6.46l67.81,0.081  c6.37,0,12.003-4.043,14.037-10.061l34.593-102.401c2.122-5.587,1.94-12.673-0.484-18.149c-1.968-4.447-5.392-7.773-9.64-9.366  c-2.373-0.89-4.77-1.341-7.124-1.341c-4.457,0-10.507,1.573-15.779,8.395c1.335-6.84,2.577-13.52,3.463-18.95  c0.453-2.779,1.496-12.42-4.122-19.746c-3.054-3.983-7.365-6.361-12.465-6.877c-0.881-0.089-1.759-0.134-2.61-0.134  c-11.038,0-19.039,7.366-21.402,19.704c-0.59,3.083-2.152,9.917-3.936,17.57l-1.476-31.574  C135.542,36.072,127.144,26.773,116.134,26.773L116.134,26.773z"/><text x="0" y="271" fill="#000000" font-size="5px" font-weight="bold" font-family="'Helvetica Neue', Helvetica, Arial-Unicode, Arial, Sans-serif">Created by Guilherme Simoes</text><text x="0" y="276" fill="#000000" font-size="5px" font-weight="bold" font-family="'Helvetica Neue', Helvetica, Arial-Unicode, Arial, Sans-serif">from the Noun Project</text></svg>