<?xml version="1.0" encoding="utf-8"?>

<!-- License Agreement at http://iconmonstr.com/license/ -->

<!DOCTYPE svg PUBLIC "-//W3C//DTD SVG 1.1//EN" "http://www.w3.org/Graphics/SVG/1.1/DTD/svg11.dtd">
<svg version="1.1" xmlns="http://www.w3.org/2000/svg" xmlns:xlink="http://www.w3.org/1999/xlink" x="0px" y="0px"
	 width="512px" height="512px" viewBox="0 0 512 512" style="enable-background:new 0 0 512 512;" xml:space="preserve">
<path id="medal-3" d="M256,221.667c-66.354,0-120.167,53.814-120.167,120.167C135.833,408.187,189.646,462,256,462
	s120.166-53.813,120.166-120.166C376.166,275.48,322.354,221.667,256,221.667z M256,427.666c-47.41,0-85.834-38.424-85.834-85.832
	C170.166,294.424,208.59,256,256,256s85.834,38.424,85.834,85.834C341.834,389.242,303.41,427.666,256,427.666z M281.482,353.585
	L307.5,328.59l-35.758-4.93L256,291.172l-15.742,32.488l-35.758,4.93l26.018,24.995l-6.337,35.54L256,372.093l31.818,17.032
	L281.482,353.585z M187.333,50l102.279,137.333h-67.946L118.666,50H187.333z M300.711,173.495L393.334,50h-68.668l-57.962,77.829
	L300.711,173.495z"/>
</svg>
