<?xml version="1.0" encoding="utf-8"?>

<!-- The icon can be used freely in both personal and commercial projects with no attribution required, but always appreciated. 
You may NOT sub-license, resell, rent, redistribute or otherwise transfer the icon without express written permission from iconmonstr.com -->

<!DOCTYPE svg PUBLIC "-//W3C//DTD SVG 1.1//EN" "http://www.w3.org/Graphics/SVG/1.1/DTD/svg11.dtd">
<svg version="1.1" xmlns="http://www.w3.org/2000/svg" xmlns:xlink="http://www.w3.org/1999/xlink" x="0px" y="0px"
	 width="512px" height="512px" viewBox="0 0 512 512" enable-background="new 0 0 512 512" xml:space="preserve">
<path id="time-4-icon" d="M269.648,154.875v101.25H360.1v40.5H229.149v-141.75H269.648z M256.414,50
	c-56.215,0-111.161,22.526-148.33,59.033L72.618,73.567L49.586,199.744l126.177-23.032l-35.859-35.859
	C168.928,112.489,212.625,95,256.414,95c88.918,0,161,72.082,161,161s-72.082,161-161,161c-88.663,0-160.579-71.672-160.99-160.238
	l-44.794,8.46C55.456,374.712,145.735,462,256.414,462c113.77,0,206-92.229,206-206S370.184,50,256.414,50z"/>
</svg>
