<?xml version="1.0" encoding="utf-8"?>

<!-- The icon can be used freely in both personal and commercial projects with no attribution required, but always appreciated. 
You may NOT sub-license, resell, rent, redistribute or otherwise transfer the icon without express written permission from iconmonstr.com -->

<!DOCTYPE svg PUBLIC "-//W3C//DTD SVG 1.1//EN" "http://www.w3.org/Graphics/SVG/1.1/DTD/svg11.dtd">
<svg version="1.1" xmlns="http://www.w3.org/2000/svg" xmlns:xlink="http://www.w3.org/1999/xlink" x="0px" y="0px"
	 width="512px" height="512px" viewBox="0 0 512 512" enable-background="new 0 0 512 512" xml:space="preserve">
<path id="wireless-7-icon" d="M401.91,110.932C439.037,148.058,462,199.348,462,256.001c0,56.654-22.963,107.943-60.09,145.07
	l-31.8-31.8c28.987-28.989,46.917-69.035,46.917-113.271c0-44.234-17.93-84.281-46.917-113.27L401.91,110.932z M309.822,203.021
	c13.559,13.56,21.944,32.291,21.944,52.98c0,20.69-8.386,39.422-21.944,52.98l33.567,33.567
	c22.15-22.148,35.849-52.748,35.849-86.548s-13.698-64.398-35.849-86.548L309.822,203.021z M293.903,256.001
	c0-20.933-16.968-37.906-37.904-37.906c-20.935,0-37.902,16.974-37.902,37.906s16.968,37.903,37.902,37.903
	C276.936,293.904,293.903,276.934,293.903,256.001z M110.09,401.068C72.963,363.942,50,312.652,50,255.999
	c0-56.654,22.963-107.943,60.09-145.07l31.8,31.8c-28.987,28.989-46.917,69.035-46.917,113.271c0,44.234,17.93,84.281,46.917,113.27
	L110.09,401.068z M202.178,308.979c-13.559-13.56-21.944-32.291-21.944-52.98c0-20.69,8.386-39.422,21.944-52.98l-33.567-33.567
	c-22.15,22.148-35.849,52.748-35.849,86.548s13.698,64.398,35.849,86.548L202.178,308.979z"/>
</svg>
