<?xml version="1.0" encoding="utf-8"?>


<!-- The icon can be used freely in both personal and commercial projects with no attribution required, but always appreciated. 
You may NOT sub-license, resell, rent, redistribute or otherwise transfer the icon without express written permission from iconmonstr.com -->


<!DOCTYPE svg PUBLIC "-//W3C//DTD SVG 1.1//EN" "http://www.w3.org/Graphics/SVG/1.1/DTD/svg11.dtd">

<svg version="1.1" xmlns="http://www.w3.org/2000/svg" xmlns:xlink="http://www.w3.org/1999/xlink" x="0px" y="0px"

	 width="512px" height="512px" viewBox="0 0 512 512" enable-background="new 0 0 512 512" xml:space="preserve">

<path id="gear-3-icon" d="M462,218.118h-25.804c-5.604,0-25.814-3.535-33.274-23.529c-7.459-19.993,3.027-34.632,7.419-39.024

	c3.11-3.11,18.252-18.247,18.252-18.247l-53.856-53.904c0,0-14.298,14.301-18.259,18.26c-3.962,3.963-20.53,15.821-39.944,6.96

	c-19.409-8.862-22.156-26.596-22.156-32.807c0-6.208,0-25.826,0-25.826H217.34c0,0,0,20.21,0,25.812

	c0,5.603-3.124,25.815-23.117,33.273c-19.994,7.458-34.423-3.025-38.812-7.417c-0.01-0.007-18.165-18.261-18.165-18.261

	l-54.102,53.856l18.139,18.373c5.705,5.765,15.851,20.59,7.021,39.925c-8.839,19.365-26.372,21.891-32.618,21.904

	c-0.004,0.017-25.685,0-25.685,0v77.69c0,0,20.202,0,25.804,0c5.604,0,25.551,2.9,33.009,22.891

	c7.458,19.997-2.703,33.704-7.437,38.396l-18.233,18.382l54.086,53.797c0,0,14.327-14.307,18.29-18.27

	c3.962-3.962,20.392-15.835,39.803-6.97c19.414,8.86,22.019,26.577,22.019,32.788s0,25.829,0,25.829h77.037c0,0,0-20.211,0-25.812

	c0-5.604,3.267-25.816,23.261-33.274c19.991-7.458,34.493,3.026,38.884,7.419c0.005,0.004-0.003,0.008-0.01,0.012l18.235,18.249

	l53.971-53.856l-18.132-18.252c-3.917-4.05-15.858-20.715-7.031-40.047c8.842-19.366,26.443-21.92,32.694-21.936

	c0.002-0.014,25.751,0,25.751,0V218.118z M256.008,332.04c-42.005,0-76.049-34.043-76.049-76.042

	c0-41.994,34.044-76.042,76.049-76.042c41.994,0,76.036,34.048,76.036,76.042C332.044,297.997,298.002,332.04,256.008,332.04z"/>

</svg>

